<?xml version="1.0" encoding="UTF-8"?>
<svg version="1.2" baseProfile="tiny"
     xmlns="http://www.w3.org/2000/svg"
     viewBox="0 0 2000 2000"
     width="2000" height="2000">
  <title>Neriah Africa</title>
  <!-- White background circle for BIMI -->
  <circle cx="1000" cy="1000" r="1000" fill="#ffffff"/>
  <!-- Teal book logo - paths scaled and centered -->
  <g transform="translate(0,2000) scale(0.1,-0.1)" fill="#0e8585" stroke="none">
    <path d="M4978 13219 c-135 -200 -306 -452 -379 -559 -73 -107 -317 -467 -542 -800 -226 -333 -456 -672 -512 -755 -168 -248 -387 -569 -391 -577 -2 -3 47 -23 108 -43 548 -181 1353 -508 2043 -830 1553 -726 2982 -1601 4328 -2653 88 -68 160 -122 162 -120 2 2 -3 269 -11 593 -7 325 -25 1092 -39 1705 -14 613 -32 1394 -40 1735 -8 341 -15 632 -15 646 0 19 -27 58 -94 135 -219 256 -571 557 -919 787 -250 166 -354 226 -622 362 -291 148 -484 230 -774 332 -524 183 -1024 297 -1611 368 -118 14 -267 28 -330 32 l-115 6 -247 -364z"/>
    <path d="M14490 13564 c-976 -107 -1751 -322 -2505 -694 -515 -254 -943 -548 -1347 -923 -111 -103 -299 -303 -321 -342 -4 -8 -14 -288 -22 -622 -30 -1282 -36 -1530 -60 -2588 -13 -599 -27 -1186 -31 -1304 -5 -178 -4 -212 7 -205 8 4 41 31 74 59 156 134 685 528 1055 787 544 379 1188 782 1815 1135 1108 625 2415 1219 3480 1584 122 42 200 74 199 81 -1 7 -183 281 -404 608 -434 640 -621 915 -1250 1843 l-405 597 -80 -1 c-44 -1 -136 -8 -205 -15z"/>
    <path d="M2771 9702 c-116 -214 -211 -393 -211 -398 0 -5 55 -16 122 -23 711 -74 1654 -307 2598 -641 1007 -356 2009 -790 3100 -1344 394 -200 1098 -578 1197 -643 13 -9 23 -13 23 -10 0 14 -627 496 -880 677 -1356 969 -2998 1819 -4715 2440 -352 127 -977 330 -1018 330 -2 0 -99 -175 -216 -388z"/>
    <path d="M16910 10064 c-943 -276 -2095 -735 -3123 -1246 -920 -457 -1759 -957 -2537 -1512 -240 -171 -691 -518 -795 -611 l-50 -45 125 71 c400 227 1004 541 1535 800 223 108 692 329 700 329 2 0 47 20 100 45 149 70 458 204 717 311 1390 576 2627 938 3633 1064 88 11 175 20 193 20 17 0 32 5 32 10 0 19 -425 790 -435 789 -5 0 -48 -12 -95 -25z"/>
    <path d="M2244 8732 c-89 -158 -194 -345 -234 -415 -40 -70 -70 -130 -67 -133 3 -3 121 -9 263 -14 959 -34 1822 -122 2779 -281 1616 -270 3298 -791 4435 -1375 90 -46 160 -80 155 -75 -22 19 -435 266 -655 391 -1264 717 -2697 1301 -4210 1715 -777 213 -1630 390 -2260 469 l-45 6 -161 -288z"/>
    <path d="M17535 9013 c-1519 -201 -3282 -703 -4855 -1381 -666 -287 -1435 -684 -2010 -1036 -96 -59 -179 -112 -185 -118 -5 -5 53 21 130 60 846 422 1957 811 3106 1087 1291 311 2649 493 4068 545 145 5 266 11 268 14 9 9 -463 831 -477 832 -8 1 -28 -1 -45 -3z"/>
  </g>
</svg>
